<mxfile host="65bd71144e">
    <diagram id="rpN6MpJJoiWMeRC0-vV8" name="Page-1">
        <mxGraphModel dx="2130" dy="1140" grid="1" gridSize="10" guides="1" tooltips="1" connect="1" arrows="1" fold="1" page="1" pageScale="1" pageWidth="850" pageHeight="1100" math="0" shadow="0">
            <root>
                <mxCell id="0"/>
                <mxCell id="1" parent="0"/>
                <mxCell id="2" value="Main" style="whiteSpace=wrap;html=1;fillColor=#dae8fc;gradientColor=#7ea6e0;strokeColor=#6c8ebf;fontStyle=5;fontColor=#0e0b0b;fontSize=20;" vertex="1" parent="1">
                    <mxGeometry x="365" y="520" width="120" height="60" as="geometry"/>
                </mxCell>
                <mxCell id="3" value="Assignment" style="whiteSpace=wrap;html=1;fontSize=20;fontStyle=5;fillColor=#f8cecc;gradientColor=#ea6b66;strokeColor=#b85450;fontColor=#000000;" vertex="1" parent="1">
                    <mxGeometry x="365" y="380" width="120" height="60" as="geometry"/>
                </mxCell>
                <mxCell id="5" value="" style="whiteSpace=wrap;html=1;fontSize=20;fontStyle=5;fillColor=#f8cecc;gradientColor=#ea6b66;strokeColor=#b85450;fontColor=#000000;" vertex="1" parent="1">
                    <mxGeometry x="140" y="10" width="120" height="60" as="geometry"/>
                </mxCell>
                <mxCell id="6" value="" style="whiteSpace=wrap;html=1;fontSize=20;fontStyle=5;fillColor=#dae8fc;gradientColor=#7ea6e0;strokeColor=#6c8ebf;fontColor=#050505;" vertex="1" parent="1">
                    <mxGeometry y="10" width="120" height="60" as="geometry"/>
                </mxCell>
                <mxCell id="7" value="CityList" style="whiteSpace=wrap;html=1;fontSize=20;fontStyle=5;fillColor=#f8cecc;gradientColor=#ea6b66;strokeColor=#b85450;fontColor=#000000;" vertex="1" parent="1">
                    <mxGeometry x="160" y="520" width="120" height="60" as="geometry"/>
                </mxCell>
                <mxCell id="8" value="Walkers" style="whiteSpace=wrap;html=1;fontSize=20;fontStyle=5;fillColor=#f8cecc;gradientColor=#ea6b66;strokeColor=#b85450;fontColor=#000000;" vertex="1" parent="1">
                    <mxGeometry x="365" y="660" width="120" height="60" as="geometry"/>
                </mxCell>
                <mxCell id="9" value="Registered&lt;br&gt;Pets" style="whiteSpace=wrap;html=1;fontSize=20;fontStyle=5;fillColor=#f8cecc;gradientColor=#ea6b66;strokeColor=#b85450;fontColor=#000000;" vertex="1" parent="1">
                    <mxGeometry x="570" y="520" width="120" height="60" as="geometry"/>
                </mxCell>
                <mxCell id="10" value="Database" style="whiteSpace=wrap;html=1;fontSize=20;fontStyle=5;fillColor=#dae8fc;gradientColor=#7ea6e0;strokeColor=#6c8ebf;fontColor=#050505;" vertex="1" parent="1">
                    <mxGeometry x="-40" y="520" width="120" height="60" as="geometry"/>
                </mxCell>
                <mxCell id="11" value="" style="edgeStyle=none;orthogonalLoop=1;jettySize=auto;html=1;fontSize=20;fontColor=#050505;strokeWidth=5;entryX=1;entryY=0.5;entryDx=0;entryDy=0;exitX=0;exitY=0.5;exitDx=0;exitDy=0;" edge="1" parent="1" source="7" target="10">
                    <mxGeometry width="100" relative="1" as="geometry">
                        <mxPoint x="30" y="670" as="sourcePoint"/>
                        <mxPoint x="130" y="670" as="targetPoint"/>
                        <Array as="points"/>
                    </mxGeometry>
                </mxCell>
                <mxCell id="12" value="" style="edgeStyle=none;orthogonalLoop=1;jettySize=auto;html=1;strokeWidth=5;fontSize=20;fontColor=#050505;entryX=0.5;entryY=1;entryDx=0;entryDy=0;exitX=0.5;exitY=0;exitDx=0;exitDy=0;" edge="1" parent="1" source="2" target="3">
                    <mxGeometry width="100" relative="1" as="geometry">
                        <mxPoint x="160" y="400" as="sourcePoint"/>
                        <mxPoint x="260" y="400" as="targetPoint"/>
                        <Array as="points"/>
                    </mxGeometry>
                </mxCell>
                <mxCell id="13" value="" style="edgeStyle=none;orthogonalLoop=1;jettySize=auto;html=1;strokeWidth=5;fontSize=20;fontColor=#050505;entryX=0.5;entryY=0;entryDx=0;entryDy=0;exitX=0.5;exitY=1;exitDx=0;exitDy=0;" edge="1" parent="1" source="2" target="8">
                    <mxGeometry width="100" relative="1" as="geometry">
                        <mxPoint x="220" y="800" as="sourcePoint"/>
                        <mxPoint x="320" y="800" as="targetPoint"/>
                        <Array as="points"/>
                    </mxGeometry>
                </mxCell>
                <mxCell id="14" value="" style="edgeStyle=none;orthogonalLoop=1;jettySize=auto;html=1;strokeWidth=5;fontSize=20;fontColor=#050505;entryX=1;entryY=0.5;entryDx=0;entryDy=0;exitX=0;exitY=0.5;exitDx=0;exitDy=0;" edge="1" parent="1" source="2" target="7">
                    <mxGeometry width="100" relative="1" as="geometry">
                        <mxPoint x="300" y="910" as="sourcePoint"/>
                        <mxPoint x="400" y="910" as="targetPoint"/>
                        <Array as="points"/>
                    </mxGeometry>
                </mxCell>
                <mxCell id="15" value="" style="edgeStyle=none;orthogonalLoop=1;jettySize=auto;html=1;strokeWidth=5;fontSize=20;fontColor=#050505;entryX=0;entryY=0.5;entryDx=0;entryDy=0;exitX=1;exitY=0.5;exitDx=0;exitDy=0;" edge="1" parent="1" source="2" target="9">
                    <mxGeometry width="100" relative="1" as="geometry">
                        <mxPoint x="530" y="670" as="sourcePoint"/>
                        <mxPoint x="630" y="670" as="targetPoint"/>
                        <Array as="points"/>
                    </mxGeometry>
                </mxCell>
            </root>
        </mxGraphModel>
    </diagram>
</mxfile>